<svg width="70" height="70" viewBox="0 0 70 70" fill="none" xmlns="http://www.w3.org/2000/svg">
<path d="M32.8125 4.375H37.1875V15.3125H32.8125V4.375ZM47.4425 19.4687L55.1119 11.7994L58.205 14.8925L50.5356 22.5619L47.4425 19.4687ZM54.6875 32.8125H65.625V37.1875H54.6875V32.8125ZM47.4425 50.5313L50.5356 47.4403L58.205 55.1097L55.1119 58.2028L47.4425 50.5313ZM32.8125 54.6875H37.1875V65.625H32.8125V54.6875ZM11.7994 55.1075L19.4687 47.4381L22.5619 50.5313L14.8947 58.2006L11.7994 55.1075ZM4.375 32.8125H15.3125V37.1875H4.375V32.8125ZM11.8016 14.8925L14.8947 11.7994L22.5641 19.4687L19.4687 22.5619L11.8016 14.8925ZM35 21.875C32.4041 21.875 29.8665 22.6448 27.7081 24.087C25.5497 25.5292 23.8675 27.579 22.8741 29.9773C21.8807 32.3756 21.6208 35.0146 22.1272 37.5606C22.6336 40.1066 23.8837 42.4452 25.7192 44.2808C27.5548 46.1163 29.8934 47.3664 32.4394 47.8728C34.9854 48.3792 37.6244 48.1193 40.0227 47.1259C42.421 46.1325 44.4708 44.4503 45.913 42.2919C47.3552 40.1335 48.125 37.5959 48.125 35C48.125 31.519 46.7422 28.1806 44.2808 25.7192C41.8194 23.2578 38.481 21.875 35 21.875Z" fill="#F8F8F8"/>
</svg>
